<svg width="75" height="62" viewBox="0 0 75 62" fill="none" xmlns="http://www.w3.org/2000/svg">
<path d="M75 7.33921C72.2429 8.5859 69.2756 9.42684 66.1622 9.80317C69.3411 7.86731 71.7785 4.80092 72.928 1.14293C69.9546 2.93785 66.6631 4.24029 63.1569 4.9434C60.3511 1.90178 56.3516 0 51.9259 0C43.4291 0 36.5401 7.00779 36.5401 15.6525C36.5401 16.8776 36.6756 18.0716 36.939 19.2192C24.1505 18.5656 12.8113 12.3353 5.22197 2.86506C3.89745 5.1757 3.13927 7.86421 3.13927 10.7355C3.13927 16.1652 5.85531 20.9568 9.98417 23.763C7.46301 23.6809 5.08952 22.9763 3.01443 21.8039C3.01291 21.869 3.01291 21.9356 3.01291 22.0021C3.01291 29.5845 8.31709 35.9093 15.3569 37.3496C14.0658 37.7058 12.7063 37.8978 11.3026 37.8978C10.31 37.8978 9.34626 37.8003 8.40692 37.616C10.3663 43.8339 16.048 48.3607 22.7803 48.4862C17.5142 52.6847 10.8809 55.1873 3.67061 55.1873C2.42982 55.1873 1.20425 55.113 0 54.9674C6.8114 59.4106 14.8986 62 23.5872 62C51.8909 62 67.3665 38.1503 67.3665 17.4661C67.3665 16.7877 67.3528 16.111 67.3239 15.4388C70.3291 13.2366 72.9386 10.4784 75 7.33921Z" fill="#4A99E9"/>
</svg>
